<mxfile host="65bd71144e">
    <diagram id="4egjesXoQzA03Yz_jH90" name="Page-1">
        <mxGraphModel dx="2304" dy="899" grid="1" gridSize="10" guides="1" tooltips="1" connect="1" arrows="1" fold="1" page="1" pageScale="1" pageWidth="850" pageHeight="1100" math="0" shadow="0">
            <root>
                <mxCell id="0"/>
                <mxCell id="1" parent="0"/>
                <mxCell id="2" value="" style="rounded=0;whiteSpace=wrap;html=1;" vertex="1" parent="1">
                    <mxGeometry x="-80" y="280" width="350" height="310" as="geometry"/>
                </mxCell>
                <mxCell id="3" value="アニメ詳細" style="text;html=1;align=center;verticalAlign=middle;whiteSpace=wrap;rounded=0;" vertex="1" parent="1">
                    <mxGeometry x="-70" y="290" width="90" height="30" as="geometry"/>
                </mxCell>
                <mxCell id="4" value="&lt;span style=&quot;color: rgb(0, 0, 0);&quot;&gt;説明&lt;/span&gt;&lt;span style=&quot;color: rgb(0, 0, 0);&quot;&gt;説明&lt;/span&gt;&lt;span style=&quot;color: rgb(0, 0, 0);&quot;&gt;説明&lt;/span&gt;&lt;span style=&quot;color: rgb(0, 0, 0);&quot;&gt;説明&lt;/span&gt;&lt;span style=&quot;color: rgb(0, 0, 0);&quot;&gt;説明&lt;/span&gt;&lt;span style=&quot;color: rgb(0, 0, 0);&quot;&gt;説明&lt;/span&gt;&lt;span style=&quot;color: rgb(0, 0, 0);&quot;&gt;説明&lt;/span&gt;&lt;span style=&quot;color: rgb(0, 0, 0);&quot;&gt;説明&lt;/span&gt;&lt;span style=&quot;color: rgb(0, 0, 0);&quot;&gt;説明&lt;/span&gt;&lt;span style=&quot;color: rgb(0, 0, 0);&quot;&gt;説明&lt;/span&gt;&lt;span style=&quot;color: rgb(0, 0, 0);&quot;&gt;説明&lt;/span&gt;&lt;span style=&quot;color: rgb(0, 0, 0);&quot;&gt;説明&lt;/span&gt;&lt;span style=&quot;color: rgb(0, 0, 0);&quot;&gt;説明&lt;/span&gt;&lt;span style=&quot;color: rgb(0, 0, 0);&quot;&gt;説明&lt;/span&gt;&lt;span style=&quot;color: rgb(0, 0, 0);&quot;&gt;説明&lt;/span&gt;&lt;span style=&quot;color: rgb(0, 0, 0);&quot;&gt;説明&lt;/span&gt;" style="text;html=1;align=center;verticalAlign=middle;whiteSpace=wrap;rounded=0;" vertex="1" parent="1">
                    <mxGeometry x="-30" y="340" width="210" height="20" as="geometry"/>
                </mxCell>
                <mxCell id="5" value="" style="verticalLabelPosition=bottom;verticalAlign=top;html=1;shape=mxgraph.basic.star" vertex="1" parent="1">
                    <mxGeometry x="180" y="293" width="28.42" height="27" as="geometry"/>
                </mxCell>
            </root>
        </mxGraphModel>
    </diagram>
</mxfile>